<svg viewBox="0 0 18 30" fill="none" xmlns="http://www.w3.org/2000/svg"><path d="M0.000291824 23.0463L1.33514e-05 0.277044H4.36931V2.80018C4.90263 1.95917 5.65128 1.28206 6.6154 0.76923C7.57949 0.256399 8.69755 0 9.96934 0C11.4052 0 12.718 0.369415 13.9078 1.10788C15.0975 1.84634 16.0412 2.88212 16.7386 4.21544C17.4155 5.56929 17.7539 7.11818 17.7539 8.86178C17.7539 10.5848 17.4155 12.1129 16.7386 13.4462C16.0412 14.7795 15.0975 15.8052 13.9078 16.5231C12.718 17.2411 11.3948 17.6001 9.93841 17.6001C8.83075 17.6 7.77432 17.3541 6.76924 16.8618C5.76411 16.39 4.96417 15.754 4.36931 14.954V20.8924H6.46183V23.354H4.30798V24.5847H8.00029V27.0463H4.30798V29.5078H0.000291824V23.0463ZM8.86149 13.8155C9.66149 13.8155 10.4 13.6205 11.0769 13.2308C11.7538 12.841 12.3078 12.2668 12.7386 11.5078C13.1488 10.7694 13.354 9.88735 13.354 8.86178C13.354 7.83615 13.1488 6.93332 12.7386 6.15384C12.3078 5.39492 11.7538 4.81049 11.0769 4.40024C10.3795 3.99 9.64097 3.78486 8.86149 3.78486C8.06152 3.78489 7.31278 3.97957 6.6154 4.36929C5.91795 4.77954 5.36429 5.35409 4.95401 6.09255C4.5438 6.85151 4.33863 7.75406 4.33863 8.80018C4.33866 9.84631 4.54377 10.7387 4.95401 11.4772C5.36426 12.2361 5.91801 12.8104 6.6154 13.2001C7.31278 13.6104 8.06152 13.8155 8.86149 13.8155Z" fill="#ffffff"/></svg>
