<svg viewBox="22 50 258 66" fill="none" xmlns="http://www.w3.org/2000/svg">

<g id="logo &#194;&#183; wordmark">
<path id="wordmark" d="M74.344 95.784C72.3653 95.784 70.592 95.448 69.024 94.776C67.456 94.0667 66.2053 93.0587 65.272 91.752C64.376 90.408 63.928 88.784 63.928 86.88C63.928 84.976 64.376 83.3893 65.272 82.12C66.2053 80.8133 67.4747 79.8427 69.08 79.208C70.7227 78.536 72.5893 78.2 74.68 78.2H82.296V76.632C82.296 75.3253 81.8853 74.2613 81.064 73.44C80.2427 72.5813 78.936 72.152 77.144 72.152C75.3893 72.152 74.0827 72.5627 73.224 73.384C72.3653 74.168 71.8053 75.1947 71.544 76.464L65.048 74.28C65.496 72.8613 66.2053 71.5733 67.176 70.416C68.184 69.2213 69.5093 68.2693 71.152 67.56C72.832 66.8133 74.8667 66.44 77.256 66.44C80.9147 66.44 83.808 67.3547 85.936 69.184C88.064 71.0133 89.128 73.664 89.128 77.136V87.496C89.128 88.616 89.6507 89.176 90.696 89.176H92.936V95H88.232C86.8507 95 85.712 94.664 84.816 93.992C83.92 93.32 83.472 92.424 83.472 91.304V91.248H82.408C82.2587 91.696 81.9227 92.2933 81.4 93.04C80.8773 93.7493 80.056 94.384 78.936 94.944C77.816 95.504 76.2853 95.784 74.344 95.784ZM75.576 90.072C77.5547 90.072 79.16 89.5307 80.392 88.448C81.6613 87.328 82.296 85.8533 82.296 84.024V83.464H75.184C73.8773 83.464 72.8507 83.744 72.104 84.304C71.3573 84.864 70.984 85.648 70.984 86.656C70.984 87.664 71.376 88.4853 72.16 89.12C72.944 89.7547 74.0827 90.072 75.576 90.072ZM96.975 95V67.224H103.919V70.36H104.927C105.338 69.24 106.01 68.4187 106.943 67.896C107.914 67.3733 109.034 67.112 110.303 67.112H113.663V73.384H110.191C108.399 73.384 106.924 73.8693 105.767 74.84C104.61 75.7733 104.031 77.2293 104.031 79.208V95H96.975ZM130.122 95.784C127.434 95.784 124.988 95.224 122.786 94.104C120.62 92.984 118.903 91.36 117.634 89.232C116.364 87.104 115.73 84.528 115.73 81.504V80.72C115.73 77.696 116.364 75.12 117.634 72.992C118.903 70.864 120.62 69.24 122.786 68.12C124.988 67 127.434 66.44 130.122 66.44C132.772 66.44 135.05 66.9067 136.954 67.84C138.858 68.7733 140.388 70.0613 141.546 71.704C142.74 73.3093 143.524 75.1387 143.898 77.192L137.066 78.648C136.916 77.528 136.58 76.52 136.058 75.624C135.535 74.728 134.788 74.0187 133.818 73.496C132.884 72.9733 131.708 72.712 130.29 72.712C128.871 72.712 127.583 73.0293 126.426 73.664C125.306 74.2613 124.41 75.176 123.738 76.408C123.103 77.6027 122.786 79.0773 122.786 80.832V81.392C122.786 83.1467 123.103 84.64 123.738 85.872C124.41 87.0667 125.306 87.9813 126.426 88.616C127.583 89.2133 128.871 89.512 130.29 89.512C132.418 89.512 134.023 88.9707 135.106 87.888C136.226 86.768 136.935 85.312 137.234 83.52L144.066 85.144C143.58 87.1227 142.74 88.9333 141.546 90.576C140.388 92.1813 138.858 93.4507 136.954 94.384C135.05 95.3173 132.772 95.784 130.122 95.784ZM148.766 95V67.224H155.822V95H148.766ZM152.294 63.976C151.025 63.976 149.942 63.5653 149.046 62.744C148.188 61.9227 147.758 60.84 147.758 59.496C147.758 58.152 148.188 57.0693 149.046 56.248C149.942 55.4267 151.025 55.016 152.294 55.016C153.601 55.016 154.684 55.4267 155.542 56.248C156.401 57.0693 156.83 58.152 156.83 59.496C156.83 60.84 156.401 61.9227 155.542 62.744C154.684 63.5653 153.601 63.976 152.294 63.976ZM171.145 95.784C169.167 95.784 167.393 95.448 165.825 94.776C164.257 94.0667 163.007 93.0587 162.073 91.752C161.177 90.408 160.729 88.784 160.729 86.88C160.729 84.976 161.177 83.3893 162.073 82.12C163.007 80.8133 164.276 79.8427 165.881 79.208C167.524 78.536 169.391 78.2 171.481 78.2H179.097V76.632C179.097 75.3253 178.687 74.2613 177.865 73.44C177.044 72.5813 175.737 72.152 173.945 72.152C172.191 72.152 170.884 72.5627 170.025 73.384C169.167 74.168 168.607 75.1947 168.345 76.464L161.849 74.28C162.297 72.8613 163.007 71.5733 163.977 70.416C164.985 69.2213 166.311 68.2693 167.953 67.56C169.633 66.8133 171.668 66.44 174.057 66.44C177.716 66.44 180.609 67.3547 182.737 69.184C184.865 71.0133 185.929 73.664 185.929 77.136V87.496C185.929 88.616 186.452 89.176 187.497 89.176H189.737V95H185.033C183.652 95 182.513 94.664 181.617 93.992C180.721 93.32 180.273 92.424 180.273 91.304V91.248H179.209C179.06 91.696 178.724 92.2933 178.201 93.04C177.679 93.7493 176.857 94.384 175.737 94.944C174.617 95.504 173.087 95.784 171.145 95.784ZM172.377 90.072C174.356 90.072 175.961 89.5307 177.193 88.448C178.463 87.328 179.097 85.8533 179.097 84.024V83.464H171.985C170.679 83.464 169.652 83.744 168.905 84.304C168.159 84.864 167.785 85.648 167.785 86.656C167.785 87.664 168.177 88.4853 168.961 89.12C169.745 89.7547 170.884 90.072 172.377 90.072ZM193.776 95V55.8H200.832V95H193.776ZM207.531 95V67.224H214.587V95H207.531ZM211.059 63.976C209.79 63.976 208.707 63.5653 207.811 62.744C206.953 61.9227 206.523 60.84 206.523 59.496C206.523 58.152 206.953 57.0693 207.811 56.248C208.707 55.4267 209.79 55.016 211.059 55.016C212.366 55.016 213.449 55.4267 214.307 56.248C215.166 57.0693 215.595 58.152 215.595 59.496C215.595 60.84 215.166 61.9227 214.307 62.744C213.449 63.5653 212.366 63.976 211.059 63.976ZM231.926 95C230.097 95 228.604 94.44 227.446 93.32C226.326 92.1627 225.766 90.632 225.766 88.728V73.048H218.822V67.224H225.766V58.6H232.822V67.224H240.438V73.048H232.822V87.496C232.822 88.616 233.345 89.176 234.39 89.176H239.766V95H231.926ZM257.937 95.784C255.174 95.784 252.692 95.224 250.489 94.104C248.286 92.984 246.55 91.36 245.281 89.232C244.012 87.104 243.377 84.5467 243.377 81.56V80.664C243.377 77.6773 244.012 75.12 245.281 72.992C246.55 70.864 248.286 69.24 250.489 68.12C252.692 67 255.174 66.44 257.937 66.44C260.7 66.44 263.182 67 265.385 68.12C267.588 69.24 269.324 70.864 270.593 72.992C271.862 75.12 272.497 77.6773 272.497 80.664V81.56C272.497 84.5467 271.862 87.104 270.593 89.232C269.324 91.36 267.588 92.984 265.385 94.104C263.182 95.224 260.7 95.784 257.937 95.784ZM257.937 89.512C260.102 89.512 261.894 88.8213 263.313 87.44C264.732 86.0213 265.441 84.0053 265.441 81.392V80.832C265.441 78.2187 264.732 76.2213 263.313 74.84C261.932 73.4213 260.14 72.712 257.937 72.712C255.772 72.712 253.98 73.4213 252.561 74.84C251.142 76.2213 250.433 78.2187 250.433 80.832V81.392C250.433 84.0053 251.142 86.0213 252.561 87.44C253.98 88.8213 255.772 89.512 257.937 89.512Z" fill="#F2F2F2"/>
<g id="p-firma" clip-path="url(#clip0_5200_68)">
<path id="Vector" d="M28.0004 96.8741L28 60.4433H34.9909V64.4803C35.8442 63.1347 37.042 62.0513 38.5846 61.2308C40.1272 60.4102 41.9161 60 43.9509 60C46.2483 60 48.3488 60.5911 50.2525 61.7726C52.156 62.9541 53.6659 64.6114 54.7817 66.7447C55.8648 68.9109 56.4062 71.3891 56.4062 74.1788C56.4062 76.9357 55.8648 79.3806 54.7817 81.5139C53.6659 83.6472 52.156 85.2883 50.2525 86.437C48.3488 87.5858 46.2317 88.1602 43.9014 88.1602C42.1292 88.16 40.4389 87.7666 38.8308 86.9789C37.2226 86.224 35.9427 85.2064 34.9909 83.9264V93.4278H38.3389V97.3664H34.8927V99.3355H40.8004V103.274H34.8927V107.212H28.0004V96.8741ZM42.1784 82.1048C43.4584 82.1048 44.64 81.7928 45.723 81.1693C46.8061 80.5456 47.6925 79.6269 48.3817 78.4125C49.0381 77.231 49.3664 75.8198 49.3664 74.1788C49.3664 72.5378 49.0381 71.0933 48.3817 69.8461C47.6925 68.6319 46.8061 67.6968 45.723 67.0404C44.6072 66.384 43.4255 66.0558 42.1784 66.0558C40.8984 66.0558 39.7004 66.3673 38.5846 66.9909C37.4687 67.6473 36.5828 68.5665 35.9264 69.7481C35.2701 70.9624 34.9418 72.4065 34.9418 74.0803C34.9418 75.7541 35.27 77.1819 35.9264 78.3635C36.5828 79.5778 37.4688 80.4966 38.5846 81.1202C39.7004 81.7766 40.8984 82.1048 42.1784 82.1048Z" fill="#F2F2F2"/>
</g>
</g>
<defs>
<linearGradient id="paint0_linear_5200_68" x1="28" y1="107.212" x2="69.7128" y2="82.1222" gradientUnits="userSpaceOnUse">
<stop stop-color="#FFD849"/>
<stop offset="1" stop-color="#FFBB00"/>
</linearGradient>
<clipPath id="clip0_5200_68">
<rect width="28.8" height="48" fill="white" transform="translate(28 60)"/>
</clipPath>
</defs>
</svg>
