<svg width="112" height="112" viewBox="0 0 112 112" fill="none" xmlns="http://www.w3.org/2000/svg">

<g id="logo &#194;&#183; icon (p firma)">
<rect width="112" height="112" rx="26" fill="#1E1E1E"/>
<g id="p-firma" clip-path="url(#clip0_5200_68)">
<path id="Vector" d="M36.0006 73.7019L36 23.6095H45.6125V29.1604C46.7858 27.3102 48.4328 25.8205 50.5539 24.6923C52.6748 23.5641 55.1346 23 57.9325 23C61.0914 23 63.9796 23.8127 66.5971 25.4373C69.2145 27.0619 71.2906 29.3407 72.8249 32.274C74.3141 35.2524 75.0586 38.66 75.0586 42.4959C75.0586 46.2866 74.3141 49.6484 72.8249 52.5816C71.2906 55.5149 69.2145 57.7714 66.5971 59.3508C63.9796 60.9304 61.0685 61.7202 57.8645 61.7202C55.4276 61.72 53.1035 61.179 50.8923 60.096C48.681 59.058 46.9211 57.6588 45.6125 55.8988V68.9633H50.216V74.3788H45.4775V77.0863H53.6006V82.5019H45.4775V87.9172H36.0006V73.7019ZM55.4952 53.3941C57.2552 53.3941 58.88 52.9651 60.3692 52.1078C61.8583 51.2502 63.0771 49.987 64.0249 48.3172C64.9273 46.6927 65.3788 44.7522 65.3788 42.4959C65.3788 40.2395 64.9273 38.2533 64.0249 36.5384C63.0771 34.8688 61.8583 33.5831 60.3692 32.6805C58.8349 31.778 57.2101 31.3267 55.4952 31.3267C53.7353 31.3268 52.0881 31.7551 50.5539 32.6124C49.0195 33.515 47.8014 34.779 46.8988 36.4036C45.9963 38.0733 45.545 40.0589 45.545 42.3604C45.545 44.6619 45.9963 46.6251 46.8988 48.2498C47.8013 49.9194 49.0196 51.1829 50.5539 52.0402C52.0881 52.9429 53.7353 53.3941 55.4952 53.3941Z" fill="url(#paint0_linear_5200_68)"/>
</g>
</g>
<defs>
<linearGradient id="paint0_linear_5200_68" x1="36" y1="87.9172" x2="93.3551" y2="53.4181" gradientUnits="userSpaceOnUse">
<stop stop-color="#FFD849"/>
<stop offset="1" stop-color="#FFBB00"/>
</linearGradient>
<clipPath id="clip0_5200_68">
<rect width="39.6" height="66" fill="white" transform="translate(36 23)"/>
</clipPath>
</defs>
</svg>
